<mxfile host="65bd71144e">
    <diagram id="_jsNpKYN-CLvz6Fx1416" name="Página-1">
        <mxGraphModel dx="2470" dy="1630" grid="1" gridSize="10" guides="1" tooltips="1" connect="1" arrows="1" fold="1" page="1" pageScale="1" pageWidth="827" pageHeight="1169" math="0" shadow="0">
            <root>
                <mxCell id="0"/>
                <mxCell id="1" parent="0"/>
                <mxCell id="45" style="edgeStyle=none;html=1;fontSize=14;startArrow=none;startFill=0;" parent="1" target="4" edge="1">
                    <mxGeometry relative="1" as="geometry">
                        <mxPoint x="325" y="-40" as="sourcePoint"/>
                    </mxGeometry>
                </mxCell>
                <mxCell id="50" style="edgeStyle=none;html=1;entryX=0.5;entryY=0;entryDx=0;entryDy=0;fontSize=14;startArrow=none;startFill=0;" parent="1" source="4" target="43" edge="1">
                    <mxGeometry relative="1" as="geometry"/>
                </mxCell>
                <mxCell id="4" value="1=Sumar (x+y)&lt;br&gt;2=Restar (x-y)&lt;br&gt;3=Multiplicar (x*y)&lt;br&gt;4=Divisiòn (x/y)&lt;br&gt;5=Potencia (x^y)&lt;br&gt;&lt;div style=&quot;text-align: justify;&quot;&gt;&lt;span style=&quot;background-color: initial;&quot;&gt;6=Logaritmo (log&lt;/span&gt;&lt;sub style=&quot;background-color: initial;&quot;&gt;x&lt;/sub&gt;&lt;span style=&quot;background-color: initial;&quot;&gt;y&lt;/span&gt;&lt;/div&gt;" style="shape=document;whiteSpace=wrap;html=1;boundedLbl=1;fillColor=#fa6800;fontColor=#000000;strokeColor=#C73500;" parent="1" vertex="1">
                    <mxGeometry x="205" y="30" width="240" height="140" as="geometry"/>
                </mxCell>
                <mxCell id="44" style="edgeStyle=none;html=1;entryX=0.5;entryY=0;entryDx=0;entryDy=0;fontSize=14;startArrow=none;startFill=0;" parent="1" source="7" target="9" edge="1">
                    <mxGeometry relative="1" as="geometry"/>
                </mxCell>
                <mxCell id="7" value="opc" style="shape=parallelogram;perimeter=parallelogramPerimeter;whiteSpace=wrap;html=1;fixedSize=1;fontSize=14;fillColor=#9E9E00;fontColor=#000000;strokeColor=#FF9933;" parent="1" vertex="1">
                    <mxGeometry x="230" y="320" width="210" height="100" as="geometry"/>
                </mxCell>
                <mxCell id="14" style="edgeStyle=none;html=1;fontSize=14;startArrow=none;startFill=0;" parent="1" source="9" edge="1">
                    <mxGeometry relative="1" as="geometry">
                        <mxPoint x="510" y="610" as="targetPoint"/>
                        <Array as="points">
                            <mxPoint x="510" y="540"/>
                        </Array>
                    </mxGeometry>
                </mxCell>
                <mxCell id="24" style="edgeStyle=none;html=1;fontSize=14;startArrow=none;startFill=0;" parent="1" source="9" edge="1">
                    <mxGeometry relative="1" as="geometry">
                        <mxPoint x="-50" y="630" as="targetPoint"/>
                        <Array as="points">
                            <mxPoint x="-50" y="540"/>
                        </Array>
                    </mxGeometry>
                </mxCell>
                <mxCell id="9" value="opc&amp;nbsp;" style="rhombus;whiteSpace=wrap;html=1;fontSize=14;fillColor=#a27b07;gradientColor=#ffd966;strokeColor=#d2a728;" parent="1" vertex="1">
                    <mxGeometry x="260" y="480" width="150" height="120" as="geometry"/>
                </mxCell>
                <mxCell id="15" value="si" style="text;html=1;align=center;verticalAlign=middle;resizable=0;points=[];autosize=1;strokeColor=none;fillColor=none;fontSize=14;" parent="1" vertex="1">
                    <mxGeometry x="440" y="510" width="30" height="30" as="geometry"/>
                </mxCell>
                <mxCell id="23" style="edgeStyle=none;html=1;entryX=0.5;entryY=0;entryDx=0;entryDy=0;fontSize=14;startArrow=none;startFill=0;" parent="1" source="16" edge="1">
                    <mxGeometry relative="1" as="geometry">
                        <Array as="points">
                            <mxPoint x="340" y="640"/>
                        </Array>
                        <mxPoint x="335" y="940" as="targetPoint"/>
                    </mxGeometry>
                </mxCell>
                <mxCell id="16" value="r = x+y" style="rounded=0;whiteSpace=wrap;html=1;strokeColor=#d2a728;fontSize=14;fillColor=#a27b07;" parent="1" vertex="1">
                    <mxGeometry x="450" y="610" width="120" height="60" as="geometry"/>
                </mxCell>
                <mxCell id="20" value="no" style="text;html=1;align=center;verticalAlign=middle;resizable=0;points=[];autosize=1;strokeColor=none;fillColor=none;fontSize=14;" parent="1" vertex="1">
                    <mxGeometry x="90" y="510" width="40" height="30" as="geometry"/>
                </mxCell>
                <mxCell id="25" style="edgeStyle=none;html=1;fontSize=14;startArrow=none;startFill=0;" parent="1" source="22" edge="1">
                    <mxGeometry relative="1" as="geometry">
                        <mxPoint x="160" y="770" as="targetPoint"/>
                        <Array as="points">
                            <mxPoint x="160" y="690"/>
                        </Array>
                    </mxGeometry>
                </mxCell>
                <mxCell id="30" style="edgeStyle=none;html=1;fontSize=14;startArrow=none;startFill=0;" parent="1" source="22" edge="1">
                    <mxGeometry relative="1" as="geometry">
                        <mxPoint x="-250" y="740" as="targetPoint"/>
                        <Array as="points">
                            <mxPoint x="-250" y="690"/>
                        </Array>
                    </mxGeometry>
                </mxCell>
                <mxCell id="22" value="opc == 2" style="rhombus;whiteSpace=wrap;html=1;fontSize=14;fillColor=#a27b07;gradientColor=#ffd966;strokeColor=#d2a728;" parent="1" vertex="1">
                    <mxGeometry x="-120" y="630" width="150" height="120" as="geometry"/>
                </mxCell>
                <mxCell id="26" value="si" style="text;html=1;align=center;verticalAlign=middle;resizable=0;points=[];autosize=1;strokeColor=none;fillColor=none;fontSize=14;" parent="1" vertex="1">
                    <mxGeometry x="75" y="655" width="30" height="30" as="geometry"/>
                </mxCell>
                <mxCell id="29" style="edgeStyle=none;html=1;entryX=0.5;entryY=0;entryDx=0;entryDy=0;fontSize=14;startArrow=none;startFill=0;" parent="1" source="28" edge="1">
                    <mxGeometry relative="1" as="geometry">
                        <Array as="points">
                            <mxPoint x="335" y="800"/>
                        </Array>
                        <mxPoint x="335" y="940" as="targetPoint"/>
                    </mxGeometry>
                </mxCell>
                <mxCell id="28" value="r =x-y" style="rounded=0;whiteSpace=wrap;html=1;strokeColor=#d2a728;fontSize=14;fillColor=#a27b07;" parent="1" vertex="1">
                    <mxGeometry x="100" y="770" width="120" height="60" as="geometry"/>
                </mxCell>
                <mxCell id="31" value="no" style="text;html=1;align=center;verticalAlign=middle;resizable=0;points=[];autosize=1;strokeColor=none;fillColor=none;fontSize=14;" parent="1" vertex="1">
                    <mxGeometry x="-220" y="665" width="40" height="30" as="geometry"/>
                </mxCell>
                <mxCell id="34" style="edgeStyle=none;html=1;fontSize=14;startArrow=none;startFill=0;" parent="1" source="33" edge="1">
                    <mxGeometry relative="1" as="geometry">
                        <mxPoint x="-70" y="860" as="targetPoint"/>
                        <Array as="points">
                            <mxPoint x="-70" y="800"/>
                        </Array>
                    </mxGeometry>
                </mxCell>
                <mxCell id="39" style="edgeStyle=none;html=1;fontSize=14;startArrow=none;startFill=0;" parent="1" source="33" edge="1">
                    <mxGeometry relative="1" as="geometry">
                        <mxPoint x="-440" y="880" as="targetPoint"/>
                        <Array as="points">
                            <mxPoint x="-440" y="800"/>
                        </Array>
                    </mxGeometry>
                </mxCell>
                <mxCell id="33" value="opc == 3" style="rhombus;whiteSpace=wrap;html=1;fontSize=14;fillColor=#a27b07;gradientColor=#ffd966;strokeColor=#d2a728;" parent="1" vertex="1">
                    <mxGeometry x="-320" y="740" width="150" height="120" as="geometry"/>
                </mxCell>
                <mxCell id="35" value="si" style="text;html=1;align=center;verticalAlign=middle;resizable=0;points=[];autosize=1;strokeColor=none;fillColor=none;fontSize=14;" parent="1" vertex="1">
                    <mxGeometry x="-135" y="770" width="30" height="30" as="geometry"/>
                </mxCell>
                <mxCell id="38" style="edgeStyle=none;html=1;fontSize=14;startArrow=none;startFill=0;" parent="1" source="37" edge="1">
                    <mxGeometry relative="1" as="geometry">
                        <mxPoint x="335" y="940" as="targetPoint"/>
                        <Array as="points">
                            <mxPoint x="335" y="890"/>
                        </Array>
                    </mxGeometry>
                </mxCell>
                <mxCell id="37" value="r = x*y" style="rounded=0;whiteSpace=wrap;html=1;strokeColor=#FF9933;fontSize=14;fillColor=#a27b07;" parent="1" vertex="1">
                    <mxGeometry x="-130" y="860" width="120" height="60" as="geometry"/>
                </mxCell>
                <mxCell id="40" value="no" style="text;html=1;align=center;verticalAlign=middle;resizable=0;points=[];autosize=1;strokeColor=none;fillColor=none;fontSize=14;" parent="1" vertex="1">
                    <mxGeometry x="-400" y="765" width="40" height="30" as="geometry"/>
                </mxCell>
                <mxCell id="42" style="edgeStyle=none;html=1;fontSize=14;startArrow=none;startFill=0;" parent="1" source="41" edge="1">
                    <mxGeometry relative="1" as="geometry">
                        <mxPoint x="-250" y="1010" as="targetPoint"/>
                        <Array as="points">
                            <mxPoint x="-250" y="940"/>
                        </Array>
                    </mxGeometry>
                </mxCell>
                <mxCell id="58" style="edgeStyle=none;html=1;fontSize=14;startArrow=none;startFill=0;" parent="1" source="41" edge="1">
                    <mxGeometry relative="1" as="geometry">
                        <mxPoint x="-640" y="980" as="targetPoint"/>
                        <Array as="points">
                            <mxPoint x="-640" y="940"/>
                        </Array>
                    </mxGeometry>
                </mxCell>
                <mxCell id="41" value="opc == 4" style="rhombus;whiteSpace=wrap;html=1;fontSize=14;fillColor=#a27b07;gradientColor=#ffd966;strokeColor=#d2a728;" parent="1" vertex="1">
                    <mxGeometry x="-510" y="880" width="150" height="120" as="geometry"/>
                </mxCell>
                <mxCell id="51" style="edgeStyle=none;html=1;entryX=0.452;entryY=0.02;entryDx=0;entryDy=0;entryPerimeter=0;fontSize=14;startArrow=none;startFill=0;" parent="1" source="43" target="7" edge="1">
                    <mxGeometry relative="1" as="geometry"/>
                </mxCell>
                <mxCell id="43" value="x,y" style="shape=parallelogram;perimeter=parallelogramPerimeter;whiteSpace=wrap;html=1;fixedSize=1;strokeColor=#BD7000;fontSize=14;fillColor=#f0a30a;fontColor=#000000;" parent="1" vertex="1">
                    <mxGeometry x="265" y="200" width="120" height="60" as="geometry"/>
                </mxCell>
                <mxCell id="52" value="si" style="text;html=1;align=center;verticalAlign=middle;resizable=0;points=[];autosize=1;strokeColor=none;fillColor=none;fontSize=14;" parent="1" vertex="1">
                    <mxGeometry x="-330" y="910" width="30" height="30" as="geometry"/>
                </mxCell>
                <mxCell id="57" style="edgeStyle=none;html=1;entryX=0.582;entryY=1.043;entryDx=0;entryDy=0;entryPerimeter=0;fontSize=14;startArrow=none;startFill=0;" parent="1" source="54" edge="1">
                    <mxGeometry relative="1" as="geometry">
                        <Array as="points">
                            <mxPoint x="353" y="1040"/>
                        </Array>
                        <mxPoint x="353.03999999999996" y="1013.0100000000002" as="targetPoint"/>
                    </mxGeometry>
                </mxCell>
                <mxCell id="54" value="r = x/y" style="rounded=0;whiteSpace=wrap;html=1;strokeColor=#FF9933;fontSize=14;fillColor=#a27b07;" parent="1" vertex="1">
                    <mxGeometry x="-310" y="1010" width="120" height="60" as="geometry"/>
                </mxCell>
                <mxCell id="59" value="no" style="text;html=1;align=center;verticalAlign=middle;resizable=0;points=[];autosize=1;strokeColor=none;fillColor=none;fontSize=14;" parent="1" vertex="1">
                    <mxGeometry x="-610" y="915" width="40" height="30" as="geometry"/>
                </mxCell>
                <mxCell id="61" style="edgeStyle=none;html=1;fontSize=14;startArrow=none;startFill=0;" parent="1" source="60" edge="1">
                    <mxGeometry relative="1" as="geometry">
                        <mxPoint x="-480" y="1120" as="targetPoint"/>
                        <Array as="points">
                            <mxPoint x="-480" y="1040"/>
                        </Array>
                    </mxGeometry>
                </mxCell>
                <mxCell id="w_0MgkYkENJ9bRwLIkQw-63" style="edgeStyle=none;html=1;fontSize=14;startArrow=none;startFill=0;" parent="1" source="60" edge="1">
                    <mxGeometry relative="1" as="geometry">
                        <mxPoint x="-820" y="1090" as="targetPoint"/>
                        <Array as="points">
                            <mxPoint x="-820" y="1040"/>
                        </Array>
                    </mxGeometry>
                </mxCell>
                <mxCell id="60" value="opc == 5" style="rhombus;whiteSpace=wrap;html=1;fontSize=14;fillColor=#a27b07;gradientColor=#ffd966;strokeColor=#d2a728;" parent="1" vertex="1">
                    <mxGeometry x="-710" y="980" width="150" height="120" as="geometry"/>
                </mxCell>
                <mxCell id="62" value="si" style="text;html=1;align=center;verticalAlign=middle;resizable=0;points=[];autosize=1;strokeColor=none;fillColor=none;fontSize=14;" parent="1" vertex="1">
                    <mxGeometry x="-535" y="1015" width="30" height="30" as="geometry"/>
                </mxCell>
                <mxCell id="w_0MgkYkENJ9bRwLIkQw-69" style="edgeStyle=none;html=1;fontSize=14;startArrow=none;startFill=0;" parent="1" source="63" edge="1">
                    <mxGeometry relative="1" as="geometry">
                        <mxPoint x="356" y="1020" as="targetPoint"/>
                        <Array as="points">
                            <mxPoint x="356" y="1150"/>
                        </Array>
                    </mxGeometry>
                </mxCell>
                <mxCell id="63" value="r = x^y" style="rounded=0;whiteSpace=wrap;html=1;strokeColor=#FF9933;fontSize=14;fillColor=#a27b07;" parent="1" vertex="1">
                    <mxGeometry x="-533" y="1120" width="120" height="60" as="geometry"/>
                </mxCell>
                <mxCell id="w_0MgkYkENJ9bRwLIkQw-64" value="no" style="text;html=1;align=center;verticalAlign=middle;resizable=0;points=[];autosize=1;strokeColor=none;fillColor=none;fontSize=14;" parent="1" vertex="1">
                    <mxGeometry x="-800" y="1015" width="40" height="30" as="geometry"/>
                </mxCell>
                <mxCell id="w_0MgkYkENJ9bRwLIkQw-70" style="edgeStyle=none;html=1;fontSize=14;startArrow=none;startFill=0;entryX=0.605;entryY=1.014;entryDx=0;entryDy=0;entryPerimeter=0;" parent="1" source="w_0MgkYkENJ9bRwLIkQw-65" edge="1">
                    <mxGeometry relative="1" as="geometry">
                        <mxPoint x="358.0999999999999" y="1010.98" as="targetPoint"/>
                        <Array as="points">
                            <mxPoint x="360" y="1270"/>
                        </Array>
                    </mxGeometry>
                </mxCell>
                <mxCell id="w_0MgkYkENJ9bRwLIkQw-65" value="r = log&lt;sub&gt;x&lt;/sub&gt;y" style="rounded=0;whiteSpace=wrap;html=1;strokeColor=#FF9933;fontSize=14;fillColor=#a27b07;" parent="1" vertex="1">
                    <mxGeometry x="-720" y="1240" width="120" height="60" as="geometry"/>
                </mxCell>
                <mxCell id="w_0MgkYkENJ9bRwLIkQw-67" style="edgeStyle=none;html=1;fontSize=14;startArrow=none;startFill=0;" parent="1" source="w_0MgkYkENJ9bRwLIkQw-66" edge="1">
                    <mxGeometry relative="1" as="geometry">
                        <mxPoint x="-670" y="1240" as="targetPoint"/>
                        <Array as="points">
                            <mxPoint x="-670" y="1150"/>
                        </Array>
                    </mxGeometry>
                </mxCell>
                <mxCell id="w_0MgkYkENJ9bRwLIkQw-66" value="opc == 6" style="rhombus;whiteSpace=wrap;html=1;fontSize=14;fillColor=#a27b07;gradientColor=#ffd966;strokeColor=#d2a728;" parent="1" vertex="1">
                    <mxGeometry x="-890" y="1090" width="150" height="120" as="geometry"/>
                </mxCell>
                <mxCell id="w_0MgkYkENJ9bRwLIkQw-68" value="si" style="text;html=1;align=center;verticalAlign=middle;resizable=0;points=[];autosize=1;strokeColor=none;fillColor=none;fontSize=14;" parent="1" vertex="1">
                    <mxGeometry x="-730" y="1120" width="30" height="30" as="geometry"/>
                </mxCell>
                <mxCell id="64" value="INICIO" style="ellipse;whiteSpace=wrap;html=1;fillColor=#CC6600;" vertex="1" parent="1">
                    <mxGeometry x="265" y="-120" width="120" height="80" as="geometry"/>
                </mxCell>
                <mxCell id="65" value="FIN" style="ellipse;whiteSpace=wrap;html=1;fillColor=#994C00;" vertex="1" parent="1">
                    <mxGeometry x="275" y="945" width="120" height="80" as="geometry"/>
                </mxCell>
            </root>
        </mxGraphModel>
    </diagram>
</mxfile>